<svg xmlns="http://www.w3.org/2000/svg" viewBox="0 0 512 512">
  <rect width="512" height="512" fill="#0f1e20"/>
  <g transform="translate(256,256) scale(3.2)">
    <!-- plates -->
    <polygon points="-18,0 -14,-22 -10,0" fill="#2d6b73" opacity="0.95"/>
    <polygon points="-8,-2 -3,-28 2,-2" fill="#2d6b73" opacity="0.95"/>
    <polygon points="2,-3 8,-34 14,-3" fill="#2d6b73" opacity="0.95"/>
    <polygon points="14,-2 19,-18 24,-2" fill="#2d6b73" opacity="0.95"/>
    <polygon points="23,0 27,-12 31,0" fill="#2d6b73" opacity="0.85"/>
    <!-- body -->
    <ellipse cx="8" cy="14" rx="34" ry="16" fill="#2d6b73"/>
    <!-- head -->
    <ellipse cx="-30" cy="10" rx="13" ry="11" fill="#2d6b73"/>
    <!-- snout -->
    <ellipse cx="-42" cy="14" rx="8" ry="6" fill="#2d6b73"/>
    <!-- eye -->
    <circle cx="-35" cy="5" r="3" fill="#0f1e20"/>
    <circle cx="-36" cy="4" r="1.2" fill="rgba(255,255,255,0.5)"/>
    <!-- legs -->
    <rect x="-16" y="26" width="9" height="16" rx="4" fill="#2d6b73"/>
    <rect x="-3" y="28" width="9" height="14" rx="4" fill="#2d6b73"/>
    <rect x="12" y="28" width="9" height="14" rx="4" fill="#2d6b73"/>
    <rect x="26" y="26" width="9" height="16" rx="4" fill="#2d6b73"/>
    <!-- tail -->
    <path d="M42,10 Q58,4 66,12 Q58,18 42,16 Z" fill="#2d6b73"/>
    <polygon points="52,6 57,-4 61,7" fill="#2d6b73" opacity="0.85"/>
    <polygon points="60,4 65,-4 68,5" fill="#2d6b73" opacity="0.7"/>
  </g>
</svg>