<svg xmlns="http://www.w3.org/2000/svg" viewBox="0 0 512 512">
  <rect width="512" height="512" fill="#0a1416"/>
  <g transform="translate(60,120) scale(3.2)">
    <polygon points="38,38 42,18 46,38" fill="#2d8a94"/>
    <polygon points="46,36 52,14 57,36" fill="#2d8a94"/>
    <polygon points="55,35 62,10 68,35" fill="#2d8a94"/>
    <polygon points="64,36 70,16 75,36" fill="#2d8a94"/>
    <polygon points="72,38 77,22 81,38" fill="#2d8a94" opacity="0.85"/>
    <ellipse cx="60" cy="50" rx="32" ry="16" fill="#2d8a94"/>
    <ellipse cx="24" cy="46" rx="12" ry="10" fill="#2d8a94"/>
    <ellipse cx="13" cy="50" rx="7" ry="5" fill="#2d8a94"/>
    <circle cx="20" cy="42" r="2.5" fill="#0a1416"/>
    <rect x="35" y="62" width="8" height="14" rx="3" fill="#2d8a94"/>
    <rect x="48" y="64" width="8" height="12" rx="3" fill="#2d8a94"/>
    <rect x="64" y="64" width="8" height="12" rx="3" fill="#2d8a94"/>
    <rect x="77" y="62" width="8" height="14" rx="3" fill="#2d8a94"/>
    <path d="M92,50 Q105,45 112,52 Q105,55 92,54 Z" fill="#2d8a94"/>
  </g>
</svg>